:version 1.10
:name ASF
:units
  mass 1
  length 1
  angle deg
:documentation
  ASF file generated by Kaydara
:root
  axis xyz
  order  tx ty tz rx ry rz
  position 0 0 0
  orientation 0 0 0
:bonedata
  begin
    id 1
    name RightUpLegDummy
    direction -0.718183 -0.695806 0.00816078
    length 4.904
    axis 0 0 0 xyz
  end
  begin
    id 2
    name RightUpLeg
    direction -0.0736652 -0.994202 0.0783343
    length 17.4976
    axis -2.72909 -3.00389 -4.00133 xyz
    dof rx ry rz
  end
  begin
    id 3
    name RightLeg
    direction -0.0389037 -0.994596 -0.0962598
    length 16.5821
    axis 3.95836 -18.5909 -4.46993 xyz
    dof rx ry rz
  end
  begin
    id 4
    name RightFoot
    direction -0.311643 -0.412678 0.855906
    length 3.77069
    axis -1.99483 -18.8351 -3.27644 xyz
    dof rx ry rz
  end
  begin
    id 5
    name RightToes
    direction -0.317852 0.0389852 0.947339
    length 3.85082
    axis -2.00228 -18.1713 -3.25211 xyz
    dof rx ry rz
  end
  begin
    id 6
    name SpineDummy
    direction 8.3039e-015 1 4.44677e-016
    length 4.6813
    axis 0 0 0 xyz
  end
  begin
    id 7
    name Spine
    direction -0.000262373 0.999988 0.00493267
    length 10.1015
    axis -0.00246081 0.00062579 0.0150362 xyz
    dof rx ry rz
  end
  begin
    id 8
    name Spine1
    direction 0 0 0
    length 0
    axis -0.00349562 0.000650293 0.0196666 xyz
    dof rx ry rz
  end
  begin
    id 9
    name HEadDummy
    direction -0.000343232 0.999999 0.00123745
    length 3.43865
    axis -0.00349562 0.000650293 0.0196666 xyz
  end
  begin
    id 10
    name HEad
    direction -0.0461221 0.980933 0.188796
    length 5.12695
    axis -0.00351404 -7.04812 0.0199272 xyz
    dof rx ry rz
  end
  begin
    id 11
    name LeftShoulder1Dummy
    direction 0.998904 -0.0399089 -0.0244534
    length 3.5433
    axis -0.00349562 0.000650293 0.0196666 xyz
  end
  begin
    id 12
    name LeftShoulder1
    direction 0.99951 1.64443e-005 0.0312999
    length 4.05031
    axis -0.00349562 0.000650293 0.0196666 xyz
    dof rx ry rz
  end
  begin
    id 13
    name LeftArm
    direction 0.984791 0.0515299 0.165927
    length 12.9126
    axis -64.823 -10.7743 5.20463 xyz
    dof rx ry rz
  end
  begin
    id 14
    name LeftForeArm
    direction 0.984968 0.0534808 0.16425
    length 10.8596
    axis -30.0462 -7.70601 1.87451 xyz
    dof rx ry rz
  end
  begin
    id 15
    name LeftHand
    direction 0.975871 0.0289682 0.216418
    length 6.62295
    axis -20.1348 -6.98077 1.86072 xyz
    dof rx ry rz
  end
  begin
    id 16
    name RightShoulderDummy
    direction -0.998877 -0.0405946 -0.0244307
    length 3.5433
    axis -0.00349562 0.000650293 0.0196666 xyz
  end
  begin
    id 17
    name RightShoulder
    direction -0.998933 -0.0249743 -0.0388558
    length 4.05031
    axis -0.0205316 -4.02113 1.41395 xyz
    dof rx ry rz
  end
  begin
    id 18
    name RightArm
    direction -0.997559 0.068664 0.0127103
    length 12.9638
    axis -67.3882 1.84188 -6.15987 xyz
    dof rx ry rz
  end
  begin
    id 19
    name RightForeArm
    direction -0.991508 0.0912848 0.0926241
    length 10.8312
    axis -22.1975 3.41087 -4.28711 xyz
    dof rx ry rz
  end
  begin
    id 20
    name RightHand
    direction -0.989262 0.0600788 0.133232
    length 6.57864
    axis -12.2911 2.17515 -4.39675 xyz
    dof rx ry rz
  end
  begin
    id 21
    name LeftUpLegDummy
    direction 0.718183 -0.695806 0.00816078
    length 4.904
    axis 0 0 0 xyz
  end
  begin
    id 22
    name LeftUpLeg
    direction 0.0831398 -0.99469 0.0606531
    length 17.4976
    axis -1.71016 2.29552 4.63832 xyz
    dof rx ry rz
  end
  begin
    id 23
    name LeftLeg
    direction 0.0498442 -0.991778 -0.117862
    length 16.5821
    axis 5.13757 15.5727 5.13348 xyz
    dof rx ry rz
  end
  begin
    id 24
    name LeftFoot
    direction 0.269026 -0.433896 0.85986
    length 3.77069
    axis -0.576502 15.6961 4.10267 xyz
    dof rx ry rz
  end
  begin
    id 25
    name LeftToes
    direction 0.277311 0.0251143 0.960452
    length 3.85048
    axis -0.576502 15.6961 4.10267 xyz
    dof rx ry rz
  end
:hierarchy
  begin
    root RightUpLegDummy SpineDummy LeftUpLegDummy
    RightUpLegDummy RightUpLeg
    RightUpLeg RightLeg
    RightLeg RightFoot
    RightFoot RightToes
    SpineDummy Spine
    Spine Spine1
    Spine1 HEadDummy LeftShoulder1Dummy RightShoulderDummy
    HEadDummy HEad
    LeftShoulder1Dummy LeftShoulder1
    LeftShoulder1 LeftArm
    LeftArm LeftForeArm
    LeftForeArm LeftHand
    RightShoulderDummy RightShoulder
    RightShoulder RightArm
    RightArm RightForeArm
    RightForeArm RightHand
    LeftUpLegDummy LeftUpLeg
    LeftUpLeg LeftLeg
    LeftLeg LeftFoot
    LeftFoot LeftToes
  end

:SAMPLES-PER-SECOND 30
:FULLY-SPECIFIED
:DEGREES
131
root  -0.253433 39.3346 -5.73319 -5.29974 -7.95743 1.68695
RightUpLeg  -17.6077 -19.4485 -1.7388
RightLeg  34.7562 9.02093 -6.13758
RightFoot  -0.467038 -0.740016 6.56473
RightToes  1.74624e-010 -3.18055e-015 -2.98177e-016
Spine  4.94225 1.97336 2.00641
Spine1  9.61693 4.54472 -10.2164
HEad  -21.8565 2.63125 -0.0267055
LeftShoulder1  -3.88251e-019 9.70628e-020 -3.87848e-018
LeftArm  -27.5599 59.0129 -64.0495
LeftForeArm  1.61422 -8.66864 -0.717771
LeftHand  -0.417601 -1.1238 8.08189
RightShoulder  7.41814 10.4519 35.1491
RightArm  13.845 -45.1926 18.0572
RightForeArm  15.1925 19.8593 -10.4336
RightHand  -1.21531 7.18 -11.2219
LeftUpLeg  -2.29284 -1.7713 -9.7623
LeftLeg  16.8375 15.4368 9.15052
LeftFoot  -9.96214 -0.116611 3.28175
LeftToes  7.37594e-011 2.64622e-011 -6.25182e-011
132
root  -0.209528 39.3273 -5.81381 -5.80807 -7.55699 1.9701
RightUpLeg  -18.1621 -20.799 -2.36546
RightLeg  36.5174 8.14936 -7.2084
RightFoot  -3.45855 -0.532836 6.21311
RightToes  1.74624e-010 -3.18055e-015 -2.98177e-016
Spine  5.36079 1.50252 0.746087
Spine1  10.1677 3.81494 -9.14265
HEad  -22.7799 3.81147 -0.76502
LeftShoulder1  -3.88251e-019 9.70628e-020 -3.87848e-018
LeftArm  -25.6126 58.3881 -62.442
LeftForeArm  -0.598591 -9.50628 -1.00391
LeftHand  -0.377648 -1.0005 7.44783
RightShoulder  7.51817 10.5057 35.5369
RightArm  12.684 -43.1323 18.9661
RightForeArm  19.3603 18.7542 -9.33422
RightHand  -1.26438 7.37494 -11.5043
LeftUpLeg  -1.83937 -1.99201 -10.2028
LeftLeg  16.6481 15.3993 9.11983
LeftFoot  -9.80474 -0.125807 3.461
LeftToes  7.37594e-011 2.64622e-011 -6.25182e-011
133
root  -0.18912 39.3226 -5.86129 -6.02843 -7.05279 1.89586
RightUpLeg  -18.0513 -21.4948 -2.38204
RightLeg  36.7215 6.109 -8.94271
RightFoot  -6.44595 -0.255545 4.59301
RightToes  1.74624e-010 -3.18055e-015 -2.98177e-016
Spine  5.32014 0.959601 0.453393
Spine1  10.8309 3.23537 -8.8417
HEad  -23.5777 4.78686 -1.40527
LeftShoulder1  -3.88251e-019 9.70628e-020 -3.87848e-018
LeftArm  -22.8547 57.1698 -60.3641
LeftForeArm  -0.504593 -9.98007 -1.5149
LeftHand  -0.485841 -1.3625 8.9978
RightShoulder  7.57598 10.5209 35.7951
RightArm  11.6307 -42.2889 19.9135
RightForeArm  20.0704 18.4353 -9.0597
RightHand  -1.28324 6.74345 -12.2557
LeftUpLeg  -1.78337 -1.8122 -10.2182
LeftLeg  16.7584 14.7412 9.20218
LeftFoot  -9.81687 -0.128047 3.55051
LeftToes  7.37594e-011 2.64622e-011 -6.25182e-011
134
root  -0.191235 39.3136 -5.8561 -6.01866 -7.08474 1.64482
RightUpLeg  -17.1891 -20.6356 -1.88843
RightLeg  34.7531 3.36178 -10.4804
RightFoot  -6.02605 -0.169126 2.9433
RightToes  1.74624e-010 -3.18055e-015 -2.98177e-016
Spine  4.96246 0.747261 0.852323
Spine1  11.1857 3.12435 -9.03247
HEad  -23.4412 5.60319 -1.88186
LeftShoulder1  -3.88251e-019 9.70628e-020 -3.87848e-018
LeftArm  -20.4957 55.8861 -58.7592
LeftForeArm  1.26418 -10.3613 -1.96883
LeftHand  -0.660961 -1.83059 11.402
RightShoulder  7.5051 10.4821 35.523
RightArm  11.7372 -42.9445 20.5504
RightForeArm  17.0413 19.0441 -9.65309
RightHand  -1.27363 6.21223 -12.6971
LeftUpLeg  -1.98187 -1.08969 -9.90425
LeftLeg  17.1157 13.9838 9.33518
LeftFoot  -10.0389 -0.121108 3.52641
LeftToes  7.37594e-011 2.64622e-011 -6.25182e-011
135
root  -0.241153 39.3307 -5.81236 -5.93409 -7.13842 1.45072
RightUpLeg  -15.1417 -18.7394 -1.36565
RightLeg  30.5871 0.361029 -11.0139
RightFoot  -3.16607 -0.237731 2.6995
RightToes  1.74624e-010 -3.18055e-015 -2.98177e-016
Spine  4.36734 0.714926 0.803565
Spine1  11.4287 2.99902 -8.46748
HEad  -22.3407 6.46483 -2.16803
LeftShoulder1  -3.88251e-019 9.70628e-020 -3.87848e-018
LeftArm  -18.9745 55.0113 -57.8141
LeftForeArm  2.91733 -11.2491 -2.2063
LeftHand  -0.827595 -2.52311 12.9565
RightShoulder  7.43001 10.4648 35.1811
RightArm  13.3581 -44.1506 20.4059
RightForeArm  12.3566 20.363 -10.829
RightHand  -1.25449 6.25911 -12.465
LeftUpLeg  -2.01606 -0.379107 -9.57076
LeftLeg  17.1086 13.2903 9.27725
LeftFoot  -10.1201 -0.119209 3.54078
LeftToes  7.37594e-011 2.64622e-011 -6.25182e-011
136
root  -0.340478 39.3926 -5.75626 -5.75028 -6.55272 1.34787
RightUpLeg  -12.2858 -17.2861 -1.01979
RightLeg  25.4108 -2.47019 -10.5541
RightFoot  -1.54796 -0.351165 3.41567
RightToes  1.74624e-010 -3.18055e-015 -2.98177e-016
Spine  3.50466 0.5171 0.0637623
Spine1  11.8478 2.49859 -7.02973
HEad  -21.0172 7.10764 -2.25436
LeftShoulder1  -3.88251e-019 9.70628e-020 -3.87848e-018
LeftArm  -17.9448 54.4338 -57.1049
LeftForeArm  3.09058 -12.8017 -2.3008
LeftHand  -0.959073 -3.416 13.4221
RightShoulder  7.47661 10.5053 35.3272
RightArm  15.3405 -45.0903 19.5006
RightForeArm  8.96391 21.9358 -12.1113
RightHand  -1.21942 6.47508 -11.9083
LeftUpLeg  -1.85591 -0.48942 -9.4026
LeftLeg  16.4916 12.8218 9.03217
LeftFoot  -9.80166 -0.130589 3.6228
LeftToes  7.37594e-011 2.64622e-011 -6.25182e-011
137
root  -0.42507 39.486 -5.7085 -5.36413 -5.72313 1.12943
RightUpLeg  -9.9659 -17.4478 -0.651362
RightLeg  21.1358 -3.78213 -9.4103
RightFoot  -1.96871 -0.334671 3.37142
RightToes  1.74624e-010 -3.18055e-015 -2.98177e-016
Spine  2.53637 0.171624 -0.253996
Spine1  12.2859 1.96197 -5.91815
HEad  -20.0814 7.23126 -2.31632
LeftShoulder1  -3.88251e-019 9.70628e-020 -3.87848e-018
LeftArm  -17.3779 53.8623 -56.6398
LeftForeArm  1.65006 -14.5995 -2.28634
LeftHand  -1.01586 -3.95588 13.3618
RightShoulder  7.5964 10.5482 35.837
RightArm  15.9471 -45.6284 18.5819
RightForeArm  8.36832 23.1022 -12.8418
RightHand  -1.19064 6.36939 -11.7349
LeftUpLeg  -1.77792 -1.39778 -9.23471
LeftLeg  15.6043 12.8831 8.78253
LeftFoot  -9.23115 -0.149159 3.68587
LeftToes  7.37594e-011 2.64622e-011 -6.25182e-011
138
root  -0.419682 39.5781 -5.69587 -4.7796 -5.63596 0.632844
RightUpLeg  -9.34807 -19.1675 -0.0607425
RightLeg  19.1053 -2.49221 -8.08877
RightFoot  -2.04766 -0.225294 2.30693
RightToes  1.74624e-010 -3.18055e-015 -2.98177e-016
Spine  1.94908 0.0115568 0.763672
Spine1  12.1498 1.89094 -6.04523
HEad  -19.4691 7.14951 -2.51486
LeftShoulder1  -3.88251e-019 9.70628e-020 -3.87848e-018
LeftArm  -17.8243 53.4101 -57.1213
LeftForeArm  -0.727546 -16.1896 -1.98366
LeftHand  -0.992181 -3.87092 13.1788
RightShoulder  7.6553 10.548 36.1337
RightArm  15.2822 -45.9339 18.3261
RightForeArm  9.23238 23.1948 -12.9054
RightHand  -1.18802 6.01513 -12.0583
LeftUpLeg  -2.01438 -2.14945 -8.81652
LeftLeg  14.9265 13.4857 8.63998
LeftFoot  -8.75486 -0.163888 3.70186
LeftToes  7.37594e-011 2.64622e-011 -6.25182e-011
139
root  -0.32732 39.658 -5.75389 -4.12415 -6.51626 0.0563114
RightUpLeg  -10.4056 -21.1556 0.665835
RightLeg  19.2516 0.163984 -7.10908
RightFoot  -0.753814 -0.183018 1.61475
RightToes  1.74624e-010 -3.18055e-015 -2.98177e-016
Spine  2.24724 0.173605 2.32326
Spine1  10.989 2.18654 -6.8878
HEad  -18.8951 7.37437 -2.7853
LeftShoulder1  -3.88251e-019 9.70628e-020 -3.87848e-018
LeftArm  -19.4846 53.4033 -59.1388
LeftForeArm  -3.8877 -17.5885 -1.30187
LeftHand  -0.958975 -3.45301 13.3609
RightShoulder  7.59229 10.5068 35.9084
RightArm  14.1512 -45.9887 18.6039
RightForeArm  10.2429 22.3097 -12.4419
RightHand  -1.18569 5.84427 -12.211
LeftUpLeg  -2.45753 -2.09891 -8.26427
LeftLeg  14.3812 14.2769 8.44266
LeftFoot  -8.3908 -0.178272 3.78964
LeftToes  7.37594e-011 2.64622e-011 -6.25182e-011
140
root  -0.212847 39.6721 -5.90089 -3.64426 -7.68988 -0.222659
RightUpLeg  -12.7217 -22.365 1.15694
RightLeg  21.5571 2.53201 -6.83968
RightFoot  0.58072 -0.274793 2.17837
RightToes  1.74624e-010 -3.18055e-015 -2.98177e-016
Spine  3.46012 0.44451 2.78225
Spine1  9.23364 2.32893 -7.02226
HEad  -18.5342 7.86111 -3.07173
LeftShoulder1  -3.88251e-019 9.70628e-020 -3.87848e-018
LeftArm  -21.8044 53.7513 -62.5181
LeftForeArm  -8.14939 -19.1013 -0.488541
LeftHand  -0.985069 -3.09978 14.2891
RightShoulder  7.45527 10.4534 35.3344
RightArm  12.9465 -45.4845 19.0365
RightForeArm  11.289 21.1468 -11.6138
RightHand  -1.15112 5.99563 -11.7095
LeftUpLeg  -3.14073 -1.5342 -7.95232
LeftLeg  14.4151 14.8413 8.36631
LeftFoot  -8.30074 -0.184431 3.87169
LeftToes  7.37594e-011 2.64622e-011 -6.25182e-011
141
root  -0.116048 39.5881 -6.11529 -3.69775 -8.59676 0.038851
RightUpLeg  -15.6681 -22.817 0.909816
RightLeg  25.7879 4.58099 -6.98231
RightFoot  1.91147 -0.476242 3.45341
RightToes  1.74624e-010 -3.18055e-015 -2.98177e-016
Spine  5.12842 0.644123 1.38325
Spine1  7.96912 2.0674 -5.69902
HEad  -18.8849 8.2552 -3.45264
LeftShoulder1  -3.88251e-019 9.70628e-020 -3.87848e-018
LeftArm  -23.5839 53.8904 -66.3903
LeftForeArm  -12.9285 -20.7712 0.2561
LeftHand  -1.02796 -2.99724 15.0862
RightShoulder  7.32118 10.4017 34.7661
RightArm  11.8486 -44.0439 19.7001
RightForeArm  12.3903 20.088 -10.6733
RightHand  -1.09546 6.04118 -11.1097
LeftUpLeg  -3.82767 -0.93234 -8.17949
LeftLeg  15.2805 15.0764 8.632
LeftFoot  -8.59581 -0.174555 3.85326
LeftToes  7.37594e-011 2.64622e-011 -6.25182e-011
142
root  -0.0389739 39.4371 -6.33909 -4.44771 -9.14629 0.796625
RightUpLeg  -18.2736 -22.9482 -0.209173
RightLeg  30.5347 6.32488 -7.14483
RightFoot  3.85397 -0.715517 4.61472
RightToes  1.74624e-010 -3.18055e-015 -2.98177e-016
Spine  6.77013 0.752629 -1.24237
Spine1  7.81213 1.5226 -3.59168
HEad  -20.0055 8.59451 -3.82094
LeftShoulder1  -3.88251e-019 9.70628e-020 -3.87848e-018
LeftArm  -24.0448 53.3607 -69.602
LeftForeArm  -15.6077 -22.1814 0.862473
LeftHand  -0.972876 -3.15879 14.0117
RightShoulder  7.25244 10.3646 34.4957
RightArm  10.7541 -41.7789 20.6723
RightForeArm  13.6556 19.1614 -9.7626
RightHand  -1.09045 5.67832 -11.4125
LeftUpLeg  -4.04783 -0.449695 -8.94147
LeftLeg  16.5254 15.1202 9.12021
LeftFoot  -9.11468 -0.156481 3.79607
LeftToes  7.37594e-011 2.64622e-011 -6.25182e-011
143
root  0.019098 39.2838 -6.51025 -5.5027 -9.35303 1.70094
RightUpLeg  -19.8897 -22.9943 -1.68532
RightLeg  34.2677 6.61705 -7.88097
RightFoot  3.99664 -0.803566 5.15749
RightToes  1.74624e-010 -3.18055e-015 -2.98177e-016
Spine  7.91247 0.725795 -3.67274
Spine1  8.49363 0.922556 -1.95002
HEad  -21.2345 9.11829 -3.83996
LeftShoulder1  -3.88251e-019 9.70628e-020 -3.87848e-018
LeftArm  -23.2327 52.1892 -71.3812
LeftForeArm  -13.7762 -22.8244 1.159
LeftHand  -0.812564 -3.72841 11.0333
RightShoulder  7.27694 10.3734 34.6018
RightArm  9.69295 -39.695 21.6393
RightForeArm  14.7099 18.544 -9.17272
RightHand  -1.17133 5.2552 -12.7038
LeftUpLeg  -3.81549 -0.124852 -9.88521
LeftLeg  17.592 15.0677 9.57261
LeftFoot  -9.59247 -0.141373 3.77959
LeftToes  7.37594e-011 2.64622e-011 -6.25182e-011
144
root  0.0568532 39.2053 -6.59967 -6.21159 -9.37215 2.34043
RightUpLeg  -20.5378 -22.8101 -2.74148
RightLeg  36.3651 5.07146 -9.69247
RightFoot  0.194551 -0.555766 4.57795
RightToes  1.74624e-010 -3.18055e-015 -2.98177e-016
Spine  8.17657 0.523437 -4.68995
Spine1  9.37921 0.5297 -1.54699
HEad  -21.7051 9.59753 -3.44027
LeftShoulder1  -3.88251e-019 9.70628e-020 -3.87848e-018
LeftArm  -21.906 50.7808 -71.8202
LeftForeArm  -8.16761 -22.5591 0.938883
LeftHand  -0.682967 -4.64062 8.45692
RightShoulder  7.34994 10.4155 34.8823
RightArm  9.03851 -38.9943 22.2956
RightForeArm  14.3775 18.5827 -9.27379
RightHand  -1.28012 5.18075 -13.9608
LeftUpLeg  -3.46173 -0.0276733 -10.5852
LeftLeg  17.9502 15.0964 9.7392
LeftFoot  -9.7363 -0.139127 3.85023
LeftToes  7.37594e-011 2.64622e-011 -6.25182e-011
145
root  0.0648105 39.1935 -6.61052 -6.32865 -9.60807 2.60142
RightUpLeg  -20.5495 -21.7463 -3.05324
RightLeg  37.06 2.98443 -11.6432
RightFoot  -4.37766 -0.230999 3.12173
RightToes  1.74624e-010 -3.18055e-015 -2.98177e-016
Spine  7.70218 0.31924 -4.23973
Spine1  9.82305 0.571481 -2.38607
HEad  -20.8755 9.53745 -2.97601
LeftShoulder1  -3.88251e-019 9.70628e-020 -3.87848e-018
LeftArm  -21.2752 49.7341 -71.7241
LeftForeArm  -2.34837 -21.6827 0.285313
LeftHand  -0.659147 -5.11143 7.80906
RightShoulder  7.391 10.4338 35.0512
RightArm  9.20441 -39.9477 22.4941
RightForeArm  12.1837 19.335 -9.99654
RightHand  -1.31353 5.23805 -14.2448
LeftUpLeg  -3.35449 -0.119207 -10.8714
LeftLeg  17.9007 15.453 9.78697
LeftFoot  -9.69191 -0.140326 3.84473
LeftToes  7.37594e-011 2.64622e-011 -6.25182e-011
